/* XPM */
static char *bitcoin32[] = {
/* columns rows colors chars-per-pixel */
"32 32 138 2 ",
"   c #000000",
".  c #020609",
"X  c #02090E",
"o  c #0B0B0B",
"O  c #010B11",
"+  c #05141C",
"@  c #151515",
"#  c #1A1B1B",
"$  c #061720",
"%  c #061823",
"&  c #061E2B",
"*  c #0B1E29",
"=  c #0C202C",
"-  c #1E282E",
";  c #062334",
":  c #092434",
">  c #0A2738",
",  c #092A3D",
"<  c #152E3C",
"1  c #262525",
"2  c #2C2C2C",
"3  c #26333A",
"4  c #383838",
"5  c #353535",
"6  c #0D2F42",
"7  c #183241",
"8  c #0E3A53",
"9  c #0D3E5A",
"0  c #153F57",
"q  c #2D3940",
"w  c #323B40",
"e  c #0F425F",
"r  c #1C465E",
"t  c #254456",
"y  c #0E4260",
"u  c #154968",
"i  c #1F4F6B",
"p  c #1B506F",
"a  c #33566A",
"s  c #245572",
"d  c #395C70",
"f  c #424141",
"g  c #4B4B4B",
"h  c #515151",
"j  c #5C5C5C",
"k  c #49606C",
"l  c #656565",
"z  c #737373",
"x  c #7F7F7F",
"c  c #165A83",
"v  c #195E86",
"b  c #1A6692",
"n  c #1B6997",
"m  c #1B6B99",
"M  c #306889",
"N  c #3F7B9D",
"B  c #1E75A7",
"V  c #2577A6",
"C  c #2077AB",
"Z  c #257AAC",
"A  c #3F7FA4",
"S  c #337FAC",
"D  c #4A7187",
"F  c #3280AD",
"G  c #5D859C",
"H  c #79919E",
"J  c #5C89A3",
"K  c #4B93BD",
"L  c #5795B8",
"P  c #79A0B7",
"I  c #2B8FC9",
"U  c #3893C8",
"Y  c #2695D6",
"T  c #2799DC",
"R  c #3AA3DF",
"E  c #29A1E7",
"W  c #2AA4EB",
"Q  c #3EA6E2",
"!  c #2BAAF3",
"~  c #2EB4FE",
"^  c #4EA9DE",
"/  c #69A6CA",
"(  c #72AAC9",
")  c #6BB2DB",
"_  c #52ADE2",
"`  c #47B6F7",
"'  c #4CB6F5",
"]  c #52B7F1",
"[  c #56BAF3",
"{  c #6BC0F1",
"}  c #6EC8FC",
"|  c #70C4F3",
" . c #73CBFD",
".. c #838383",
"X. c #888888",
"o. c #919191",
"O. c #9D9C9C",
"+. c #A6A6A6",
"@. c #ACACAC",
"#. c #B2B2B2",
"$. c #B9B8B7",
"%. c #8DB3C9",
"&. c #84BDDE",
"*. c #ABBFCA",
"=. c #A9CADD",
"-. c #8BCBEF",
";. c #94C6E2",
":. c #98CCEA",
">. c #8DD5FD",
",. c #90D5FD",
"<. c #A7D2EB",
"1. c #B5D7E9",
"2. c #BBD8E9",
"3. c #ADDAF2",
"4. c #B2DDF6",
"5. c #ACE2FF",
"6. c #C0C0C0",
"7. c #CCCCCC",
"8. c #D2D2D2",
"9. c #D3D9DC",
"0. c #DBDBDB",
"q. c #C4DCEA",
"w. c #C3E7FC",
"e. c #C7ECFF",
"r. c #CBEDFF",
"t. c #D1E8F6",
"y. c #DFECF2",
"u. c #D2EFFF",
"i. c #DDF3FE",
"p. c #E5E5E5",
"a. c #ECECEC",
"s. c #E3F6FF",
"d. c #E4F8FF",
"f. c #ECF9FF",
"g. c #F3F3F3",
"h. c #F3FCFF",
"j. c #FFFFFF",
"k. c None",
/* pixels */
"k.k.~ E Y Y Y Y Y Y Y Y Y Y Y Y Y Y Y Y Y Y Y Y Y Y Y Y E ~ k.k.",
"k.! b : + + + + + + + + + + + + + + + + + + + + + + + + : b ! k.",
"~ n .                                                     . b ~ ",
"W ,                                                         > W ",
"T %                                                         % T ",
"T %     X 3 #                                     o w X     % T ",
"T %     > <.$.2                                 # O.q.<     % T ",
"T %     i u.j.0.h                             5 $.j.f.a     % T ",
"T %     N f.j.j.a.x @                       j 0.j.j.j.G     % T ",
"T &   O / j.j.j.j.j.j       2 X.O.f o     2 p.j.j.j.j.%.X   % T ",
"T %   & :.j.j.j.j.g.4   2 o.p.j.j.g.@.g . @ 8.j.j.j.j.2.=   % T ",
"T %   e w.j.j.j.j.8.@ - 9.j.j.j.j.j.j.g.g   +.j.j.j.j.i.t   % T ",
"T %   M d.j.j.j.j.+.  k h.j.j.j.j.j.j.j.x   z j.j.j.j.h.D   % T ",
"T % . L h.j.j.j.j.z   H j.j.j.j.j.j.j.j.#.  f g.j.j.j.j.P   % T ",
"T % + &.j.j.j.j.g.f X *.j.j.j.j.j.j.j.j.0.# # 0.j.j.j.j.=.+ % T ",
"T % 6 4.j.j.j.j.0.# = 1.j.j.j.j.j.j.j.j.y.3   #.j.j.j.j.t.7 + T ",
"T $ s u.j.j.j.j.a.f O K s.j.j.j.j.j.j.h.( + # 7.j.j.j.j.f.d + T ",
"T % J f.j.j.j.j.j.7.1 ; ) h.j.j.j.j.j.;.< o +.j.j.j.j.j.j.J % T ",
"T & Z 5.j.j.j.j.j.j.#.@ 8 -.d.d.s.d.3.r . ..j.j.j.j.j.j.e.F & T ",
"T % > R e.j.j.j.j.j.j.o.X u F F S F i . l g.j.j.j.j.j.i.^ ; $ T ",
"T %   e ] i.j.j.j.j.j.g.z # # # # # @ h p.j.j.j.j.j.f.} 9   % T ",
"T %     c } h.j.j.j.j.j.g.0.0.0.0.0.0.a.j.j.j.j.j.h.>.p     % T ",
"T %     X B >.j.j.j.j.j.j.j.j.j.j.j.j.j.j.j.j.j.j.5.V X     % T ",
"T %       % I 5.j.j.j.j.j.j.j.j.j.j.j.j.j.j.j.j.r.U %       % T ",
"T %         6 Q r.j.j.j.j.j.j.j.j.j.j.j.j.j.j.s._ ,         % T ",
"E %           y [ s.j.j.j.j.j.j.j.j.j.j.j.j.h.| e           % T ",
"T %             v  .d.f.f.f.f.f.f.f.f.f.f.f.,.v             % T ",
"T %             O C ` ' ' ' ' ' ' ' ' ' ' ` V O             % T ",
"W ,               + > , , , , , , , , , , , +               > W ",
"~ m .                                                     . m ~ ",
"k.! n > % + % + + % % + % + + % % + % + + % % + % + % + > m ! k.",
"k.k.~ W T T T T Y T T T T T Y T T T T T T Y T T T T Y T W ~ k.k."
};
