/* XPM */
static char *bitcoin64[] = {
/* columns rows colors chars-per-pixel */
"64 64 169 2 ",
"   c #000000",
".  c #010609",
"X  c #02090D",
"o  c #0B0B0B",
"O  c #030D13",
"+  c #041016",
"@  c #05141D",
"#  c #151515",
"$  c #1C1C1C",
"%  c #11191D",
"&  c #051720",
"*  c #061923",
"=  c #061D2A",
"-  c #081E2B",
";  c #08202E",
":  c #072333",
">  c #092434",
",  c #082739",
"<  c #0A2A3C",
"1  c #102B3A",
"2  c #242424",
"3  c #2A2A2A",
"4  c #333333",
"5  c #3B3B3B",
"6  c #0A2F45",
"7  c #0A3147",
"8  c #0C344B",
"9  c #0C3750",
"0  c #0E3A53",
"q  c #0E3F5A",
"w  c #10405C",
"e  c #0F4666",
"r  c #124765",
"t  c #124867",
"y  c #134C6D",
"u  c #144E70",
"i  c #145175",
"p  c #14557A",
"a  c #1B5678",
"s  c #244E66",
"d  c #2B5167",
"f  c #2B5C77",
"g  c #396278",
"h  c #434343",
"j  c #494949",
"k  c #45484A",
"l  c #535353",
"z  c #5C5C5C",
"x  c #636363",
"c  c #6B6B6B",
"v  c #737373",
"b  c #7C7C7C",
"n  c #165A82",
"m  c #1B5D83",
"M  c #19628C",
"N  c #16618C",
"B  c #1A6691",
"V  c #1B6C9B",
"C  c #1B6996",
"Z  c #236489",
"A  c #2A6E95",
"S  c #2F759D",
"D  c #1A6FA0",
"F  c #1C72A2",
"G  c #1C76AA",
"H  c #1F7DB3",
"J  c #207EB4",
"K  c #537588",
"L  c #527F99",
"P  c #3780A9",
"I  c #2183BB",
"U  c #2987BE",
"Y  c #3C86B1",
"T  c #438DB8",
"R  c #6593AD",
"E  c #2287C2",
"W  c #248AC5",
"Q  c #238CC9",
"!  c #2A90CC",
"~  c #2695D6",
"^  c #2F98D5",
"/  c #2697D9",
"(  c #279ADD",
")  c #289CDF",
"_  c #379EDA",
"`  c #289EE3",
"'  c #29A0E6",
"]  c #27A3EA",
"[  c #29A5EE",
"{  c #37A2E0",
"}  c #3DA8E7",
"|  c #2AA7F0",
" . c #2BABF5",
".. c #2BAEFA",
"X. c #33ACF3",
"o. c #2DB2FF",
"O. c #34B5FF",
"+. c #39B5FD",
"@. c #37B8FF",
"#. c #39B8FF",
"$. c #4C97C3",
"%. c #529ECA",
"&. c #5CA8D3",
"*. c #64AED9",
"=. c #6BB4DE",
"-. c #42ADEB",
";. c #53B5ED",
":. c #4CB5F2",
">. c #42BAFF",
",. c #4ABDFF",
"<. c #56BBF5",
"1. c #76BCE5",
"2. c #56C1FF",
"3. c #5CC3FE",
"4. c #7DC2EA",
"5. c #62C5FE",
"6. c #66C8FF",
"7. c #6DC9FF",
"8. c #73CBFE",
"9. c #7BCEFF",
"0. c #7DD0FF",
"q. c #848484",
"w. c #888888",
"e. c #868889",
"r. c #8F8F90",
"t. c #949494",
"y. c #9C9C9C",
"u. c #A2A2A2",
"i. c #ABABAB",
"p. c #B3B3B3",
"a. c #BABCBC",
"s. c #81ADC6",
"d. c #95BED6",
"f. c #88CAF0",
"g. c #90CFF3",
"h. c #8DD6FF",
"j. c #84D3FF",
"k. c #92D7FF",
"l. c #96D9FF",
"z. c #9BDAFF",
"x. c #9AD5F7",
"c. c #ABD1E7",
"v. c #A6DCFB",
"b. c #A7E1FF",
"n. c #ADE2FF",
"m. c #B4E4FF",
"M. c #B9E5FF",
"N. c #BEE9FF",
"B. c #C4C4C4",
"V. c #CDCDCD",
"C. c #D5D5D5",
"Z. c #DDDDDD",
"A. c #C4EBFF",
"S. c #CCEDFF",
"D. c #C1E0F2",
"F. c #D3EEFF",
"G. c #D1F0FF",
"H. c #DCF3FF",
"J. c #E3E3E3",
"K. c #ECECEC",
"L. c #E3F5FF",
"P. c #E9F7FF",
"I. c #E4F8FF",
"U. c #ECF9FF",
"Y. c #F3F3F3",
"T. c #F6F7F8",
"R. c #F2FAFF",
"E. c #FFFFFF",
"W. c None",
/* pixels */
"W.W.W.W.W.W.o.O.o.o.o.o.o.o.o.o.o.o.o.o.o.o.o.o.O.o.o.o.o.o.o.o.o.o.o.o.O.o.o.o.o.o.o.o.o.o.O.o.o.o.o.o.o.o.o.o.o.o.W.W.W.W.W.W.",
"W.W.W.W.o.o...' / ~ ~ ~ ~ ~ / / ~ ~ ~ ~ ~ / ~ ~ ~ ~ ~ / ~ ~ ~ ~ ~ / ~ ~ ~ ~ ~ / ~ ~ ~ ~ ~ ~ ~ ~ ~ / ~ / ~ ~ ~ / ' o.o.o.W.W.W.W.",
"W.W.W.o.o.I w = + + + + + + + + + + + + + + + + + + + + + + + + + + + + + + + + + + + + + + + + + + + + + + + + * w I o.o.W.W.W.",
"W.W.o. .p O                                                                                                         X p  .o.W.W.",
"W.o.o.m .                                                                                                             . n ..O.W.",
"W.o.Q O                                                                                                                 O E o.W.",
"o.o.u                                                                                                                     t o.o.",
"o.| <                                                                                                                     > [ o.",
"o.' *                                                                                                                     * ` o.",
"o.' *                                                                                                                     * ` o.",
"o.' *               .                                                                                     .               & ` o.",
"o.' *             + s e.3                                                                             o v K +             & ` o.",
"o.' *             7 <.R.C.j                                                                         $ y.T.x.8             & ` o.",
"o.` *             p 0.E.E.K.v o                                                                   5 B.E.E.A.a             * ` o.",
"o.' *           . G b.E.E.E.T.y.$                                                             . z Z.E.E.E.I.S .           & ` o.",
"o.' *           + ^ S.E.E.E.E.E.B.5                                                         # q.Y.E.E.E.E.E.*.O           & ` o.",
"o.` *           , :.P.E.E.E.E.E.E.J.x o                                                   3 i.E.E.E.E.E.E.E.f.>           & ` o.",
"o.' *           e 7.T.E.E.E.E.E.E.E.Y.t.5                                             . j C.E.E.E.E.E.E.E.E.m.r           * ` o.",
"o.' *           C l.E.E.E.E.E.E.E.E.E.E.B.#                 # z q.5                   j K.E.E.E.E.E.E.E.E.E.G.A           & ` o.",
"o.` *         X W N.E.E.E.E.E.E.E.E.E.E.u.              # x a.T.E.J.y.5 o             5 Y.E.E.E.E.E.E.E.E.E.R.$.X         & ` o.",
"o.` *         = -.H.E.E.E.E.E.E.E.E.E.E.c           $ c V.T.E.E.E.E.E.K.u.h .         # C.E.E.E.E.E.E.E.E.E.E.1.*         & ` o.",
"o.' *         0 3.R.E.E.E.E.E.E.E.E.E.Y.5       $ v V.T.E.E.E.E.E.E.E.E.E.Y.i.j o     . i.E.E.E.E.E.E.E.E.E.E.v.0         * ` o.",
"o.' *         n j.E.E.E.E.E.E.E.E.E.E.C.$     % a.E.E.E.E.E.E.E.E.E.E.E.E.E.E.Y.c       v E.E.E.E.E.E.E.E.E.E.S.m         & ` o.",
"o.` *       . H n.E.E.E.E.E.E.E.E.E.E.i..     g U.E.E.E.E.E.E.E.E.E.E.E.E.E.E.E.u.      k Y.E.E.E.E.E.E.E.E.E.P.Y .       & ` o.",
"o.` *       @ _ G.E.E.E.E.E.E.E.E.E.E.b       R E.E.E.E.E.E.E.E.E.E.E.E.E.E.E.E.V.#     $ Z.E.E.E.E.E.E.E.E.E.E.*.+       * ` o.",
"o.' *       < :.U.E.E.E.E.E.E.E.E.E.Y.j     + d.E.E.E.E.E.E.E.E.E.E.E.E.E.E.E.E.K.5     . a.E.E.E.E.E.E.E.E.E.E.f.<       * ` o.",
"o.' *       y 8.E.E.E.E.E.E.E.E.E.E.J.2     > M.E.E.E.E.E.E.E.E.E.E.E.E.E.E.E.E.E.z       q.E.E.E.E.E.E.E.E.E.E.N.u       & ` o.",
"o.' *       F z.E.E.E.E.E.E.E.E.E.E.a.o     d L.E.E.E.E.E.E.E.E.E.E.E.E.E.E.E.E.E.w.      l T.E.E.E.E.E.E.E.E.E.H.S       @ ` O.",
"o.' *     O ! A.E.E.E.E.E.E.E.E.E.E.w.      L E.E.E.E.E.E.E.E.E.E.E.E.E.E.E.E.E.E.a.o     3 J.E.E.E.E.E.E.E.E.E.R.%.O     & ` o.",
"o.` *     : -.I.E.E.E.E.E.E.E.E.E.T.z     X s.E.E.E.E.E.E.E.E.E.E.E.E.E.E.E.E.E.E.J.3     o B.E.E.E.E.E.E.E.E.E.E.4.=     * ` o.",
"o.` *     q 5.R.E.E.E.E.E.E.E.E.E.J.3     = c.E.E.E.E.E.E.E.E.E.E.E.E.E.E.E.E.E.E.T.k       t.E.E.E.E.E.E.E.E.E.E.v.q     & ` o.",
"o.' *     N h.E.E.E.E.E.E.E.E.E.E.B.o     0 8.R.E.E.E.E.E.E.E.E.E.E.E.E.E.E.E.E.E.S.f       z E.E.E.E.E.E.E.E.E.E.G.Z     & ` o.",
"o.` *   . I m.E.E.E.E.E.E.E.E.E.E.V.2     > ) l.E.E.E.E.E.E.E.E.E.E.E.E.E.E.E.E.L.;.8       v T.E.E.E.E.E.E.E.E.E.U.T .   & ` o.",
"o.` =   & { H.E.E.E.E.E.E.E.E.E.E.E.u.o     q X.m.E.E.E.E.E.E.E.E.E.E.E.E.E.E.R.7.p .     j K.E.E.E.E.E.E.E.E.E.E.E.=.@   * ` o.",
"o.' *   7 <.R.E.E.E.E.E.E.E.E.E.E.E.T.b .   . n >.F.E.E.E.E.E.E.E.E.E.E.E.E.E.h.V X     3 C.E.E.E.E.E.E.E.E.E.E.E.E.x.6   & ` o.",
"o.` *   i 6.R.E.E.E.E.E.E.E.E.E.E.E.E.Y.x     X G 5.I.E.E.E.E.E.E.E.E.E.E.E.b.U +     $ a.E.E.E.E.E.E.E.E.E.E.E.E.E.b.i   & ` o.",
"o.` *   F @.b.E.E.E.E.E.E.E.E.E.E.E.E.E.J.h     & Q 0.R.E.E.E.E.E.E.E.E.E.A._ >     o y.E.E.E.E.E.E.E.E.E.E.E.E.E.H.2.F   & ` o.",
"o.' *   t  .>.S.E.E.E.E.E.E.E.E.E.E.E.E.E.V.3     < ' l.H.H.H.H.H.H.H.H.S.;.9       b E.E.E.E.E.E.E.E.E.E.E.E.E.R.8. .r   * ` o.",
"o.' *   . B o.2.L.E.E.E.E.E.E.E.E.E.E.E.E.E.a.#     r X.>.>.>.#.>.#.>.>.+.i       z Y.E.E.E.E.E.E.E.E.E.E.E.E.E.h.o.M .   & ` o.",
"o.' *     O H o.8.R.E.E.E.E.E.E.E.E.E.E.E.E.T.t.o   . 0 y y y y y y y t q X     h Z.E.E.E.E.E.E.E.E.E.E.E.E.E.n.O.H O     & ` o.",
"o.' *       ; ~ o.k.E.E.E.E.E.E.E.E.E.E.E.E.E.T.v .                           3 V.E.E.E.E.E.E.E.E.E.E.E.E.E.S.>.~ =       & ` o.",
"o.` *         8 ' O.n.E.E.E.E.E.E.E.E.E.E.E.E.E.K.z # # # # # $ # # # $ # # 2 p.E.E.E.E.E.E.E.E.E.E.E.E.E.L.3.] 7         * ` o.",
"o.` *           y ..>.S.E.E.E.E.E.E.E.E.E.E.E.E.E.K.C.C.C.C.C.C.C.C.C.C.C.C.Z.E.E.E.E.E.E.E.E.E.E.E.E.E.R.8...y           & ` o.",
"o.' *           . C o.3.I.E.E.E.E.E.E.E.E.E.E.E.E.E.E.E.E.E.E.E.E.E.E.E.E.E.E.E.E.E.E.E.E.E.E.E.E.E.E.E.k.o.B .           & ` o.",
"o.` *             + I o.8.R.E.E.E.E.E.E.E.E.E.E.E.E.E.E.E.E.E.E.E.E.E.E.E.E.E.E.E.E.E.E.E.E.E.E.E.E.E.m.O.I O             & ` O.",
"o.' *               > ~ O.k.E.E.E.E.E.E.E.E.E.E.E.E.E.E.E.E.E.E.E.E.E.E.E.E.E.E.E.E.E.E.E.E.E.E.E.E.F.>.~ >               * ` o.",
"o.' *                 0 [ O.m.E.E.E.E.E.E.E.E.E.E.E.E.E.E.E.E.E.E.E.E.E.E.E.E.E.E.E.E.E.E.E.E.E.E.I.3.[ 8                 & ` o.",
"o.` *                   i ..>.F.E.E.E.E.E.E.E.E.E.E.E.E.E.E.E.E.E.E.E.E.E.E.E.E.E.E.E.E.E.E.E.E.R.9. .i                   & ` o.",
"o.` *                   . V o.3.I.E.E.E.E.E.E.E.E.E.E.E.E.E.E.E.E.E.E.E.E.E.E.E.E.E.E.E.E.E.E.E.l.O.V .                   & ` o.",
"o.' *                     @ I o.9.R.E.E.E.E.E.E.E.E.E.E.E.E.E.E.E.E.E.E.E.E.E.E.E.E.E.E.E.E.E.M.#.I +                     * ` o.",
"o.' *                       , / O.l.E.E.E.E.E.E.E.E.E.E.E.E.E.E.E.E.E.E.E.E.E.E.E.E.E.E.E.E.F.,./ ,                       & ` o.",
"o.' *                         q [ #.M.E.E.E.E.E.E.E.E.E.E.E.E.E.E.E.E.E.E.E.E.E.E.E.E.E.E.I.3.[ 0                         & ` o.",
"o.' *                           p ..,.F.E.E.E.E.E.E.E.E.E.E.E.E.E.E.E.E.E.E.E.E.E.E.E.E.R.j...p                           & ` o.",
"o.` *                           X F o.5.L.R.R.R.R.R.R.R.R.R.R.R.R.R.R.R.R.R.R.R.R.R.R.R.l.O.V X                           * ` o.",
"o.' *                             @ E o.,.<.,.3.2.2.2.,.<.2.2.,.3.,.2.2.,.2.2.<.2.,.<.2.#.E @                             & ` o.",
"o.' =                               < ` o.o.o.o.o...o.o.o.o.o.o.o.o...o.o.o.o.o.o.o.o.o.( ,                               * ` o.",
"o.| <                                 < t t t t r r r r r t t t r r r r r r r r t t t t <                                 , [ O.",
"o.o.i                                                                                                                     y o.o.",
"W.o.Q @                                                                                                                 + W o.W.",
"W.o.o.B .                                                                                                             . M o.o.W.",
"W.W.o...M +                                                                                                         + m ..o.W.W.",
"W.W.W.o.o.W y > * @ @ @ @ @ @ @ @ @ @ @ @ @ @ @ @ @ @ @ @ @ @ @ @ @ @ @ @ @ @ @ @ @ @ @ @ @ @ @ @ @ @ @ @ @ @ & > y W o.o.W.W.W.",
"W.W.W.W.o.O.o.[ ` ) ) ) ) ) ` ) ) ) ) ) ) ) ) ) ) ) ` ) ) ) ) ) ) ) ) ) ) ) ` ) ) ) ) ) ) ) ) ) ) ) ` ) ( ) ( ` [ o.o.o.W.W.W.W.",
"W.W.W.W.W.W.o.o.o.o.o.o.o.o.o.o.o.o.o.O.o.o.o.o.o.o.o.o.o.o.o.O.o.o.o.o.o.o.o.o.o.o.o.o.o.O.o.o.o.o.o.o.o.o.o.o.o.o.W.W.W.W.W.W."
};
