/* XPM */
static char *bitcoin16[] = {
/* columns rows colors chars-per-pixel */
"16 16 135 2 ",
"   c #000000",
".  c #000406",
"X  c #000407",
"o  c #040404",
"O  c #01080C",
"+  c #020A0E",
"@  c #030A0E",
"#  c #030A0F",
"$  c #030B0F",
"%  c #050C0F",
"&  c #080808",
"*  c #0A0B0B",
"=  c #0D0E0E",
"-  c #020B10",
";  c #131313",
":  c #101519",
">  c #111618",
",  c #191919",
"<  c #051824",
"1  c #061924",
"2  c #051C2A",
"3  c #051D2B",
"4  c #12232D",
"5  c #1A262D",
"6  c #222222",
"7  c #232323",
"8  c #303131",
"9  c #343738",
"0  c #393939",
"q  c #0E2F42",
"w  c #123042",
"e  c #2F4958",
"r  c #3C4D57",
"t  c #344D5C",
"y  c #384E5A",
"u  c #0F4768",
"i  c #0F486A",
"p  c #0F496B",
"a  c #1E4C66",
"s  c #104868",
"d  c #114969",
"f  c #124968",
"g  c #134A69",
"h  c #12496A",
"j  c #134A6A",
"k  c #134A6B",
"l  c #134B6B",
"z  c #134B6C",
"x  c #134C6D",
"c  c #134D6E",
"v  c #144D6E",
"b  c #135075",
"n  c #135176",
"m  c #135276",
"M  c #125278",
"N  c #254E66",
"B  c #3B5E72",
"V  c #414141",
"C  c #465055",
"Z  c #585858",
"A  c #415F71",
"S  c #5C6E78",
"D  c #6E6E6E",
"F  c #797B7C",
"G  c #19628D",
"H  c #19638E",
"J  c #19648F",
"K  c #196490",
"L  c #1A6590",
"P  c #1A6591",
"I  c #1A6592",
"U  c #336A8A",
"Y  c #3C6D8A",
"T  c #597889",
"R  c #6A7D88",
"E  c #757C80",
"W  c #798288",
"Q  c #7A8388",
"!  c #688697",
"~  c #778A96",
"^  c #4C83A2",
"/  c #5987A2",
"(  c #71ACCD",
")  c #888989",
"_  c #8F9192",
"`  c #8F9193",
"'  c #969899",
"]  c #999A9B",
"[  c #999B9D",
"{  c #9E9E9E",
"}  c #83A6B9",
"|  c #95ACB8",
" . c #A6A8A9",
".. c #AAAAAA",
"X. c #B5B4B4",
"o. c #B5B5B5",
"O. c #B8B7B7",
"+. c #83ADC6",
"@. c #86AEC6",
"#. c #81B1CD",
"$. c #9EBBCC",
"%. c #B0C2CB",
"&. c #96C9E6",
"*. c #92CBED",
"=. c #95CCED",
"-. c #98CDEC",
";. c #99CDEC",
":. c #A5CEE5",
">. c #B8DFF5",
",. c #C8C8C8",
"<. c #CECECE",
"1. c #C2DCEA",
"2. c #CADFEB",
"3. c #D3E4ED",
"4. c #D8E4EB",
"5. c #C6E4F5",
"6. c #E1E1E1",
"7. c #EEEEEE",
"8. c #EFEFEE",
"9. c #E9F6FD",
"0. c #E7F8FF",
"q. c #EFFBFF",
"w. c #F3F3F3",
"e. c #F6F5F5",
"r. c #F2F6F8",
"t. c #F2F9FD",
"y. c #F5FDFF",
"u. c #FAFAFA",
"i. c #FAFFFF",
"p. c #FBFFFF",
"a. c #FCFCFC",
"s. c #FDFFFF",
"d. c #FEFEFE",
"f. c white",
"g. c None",
/* pixels */
"g.H j g g g g g g g g g g j G g.",
"L @                         + J ",
"c   : =                 * >   x ",
"x   !  .6             , ] ~   z ",
"z - $.f.,.7 o 0 V & ; o.f.%.% k ",
"h 4 2.f.6.9 ' 7.w...8 <.f.4.5 d ",
"s e 9.f.O.C r.f.f.a.Z { f.t.r u ",
"p T p.f.) S s.f.f.f.E D f.f.R i ",
"M } f.f.X.t 1.f.f.3.y { f.f.| m ",
"n ^ 0.f.d._ B +.@.A F u.f.q./ b ",
"k < ( y.f.e.[ W Q ` 8.f.i.#.1 j ",
"x   q &.s.f.f.f.f.f.f.f.:.w   z ",
"x     a >.f.f.f.f.f.f.5.N     z ",
"v     X U *.;.-.-.;.=.Y .     x ",
"I $     O 2 3 3 3 3 2 O     # P ",
"g.K z l k f f f f f f k l z K g."
};
